<svg xmlns="http://www.w3.org/2000/svg" viewBox="0 0 203.36 105.37">
  <defs>
    <style>
      .a6d45407-a40f-4367-9e01-b2fb55c8d785 {
        fill: #6364b1;
      }
    </style>
  </defs>
  <g id="ac2f32a9-fc4c-40f1-a4dc-00082057a278" data-name="Layer 2">
    <g id="b77c6222-0357-4e2c-966f-83c39c7816da" data-name="Layer 1">
      <path class="a6d45407-a40f-4367-9e01-b2fb55c8d785" d="M203.35,59c-.48-18.61-12.55-32.95-30.5-41.27C158.06,10.82,141.6,8.06,125.58,5A264.28,264.28,0,0,0,81.52,0C66.7-.29,51.11,1.38,37.74,8.26c-14.31,7.36-27.14,18-33.52,33.19C-3.44,59.7-.93,80.82,13.84,94.68,28,108,49.05,107.2,66.22,101.33c6.18-2.11,12.16-4.76,18.41-6.72,1.51-.48,3-.93,4.57-1.36.53-.15,1.12-.26,1.68-.42,2.78-.6,5.56-1.18,8.37-1.64,29.4-4.84,60.72,3.49,88.6-9.73C197,77.13,203.62,69.38,203.35,59Z"/>
    </g>
  </g>
</svg>
