<svg width="175" height="55" viewBox="0 0 175 55" fill="none" xmlns="http://www.w3.org/2000/svg">
<path d="M1.2 21C3.1 16.1 6.6 11.3 11.2 10.3C34.7 4.90001 58.6 -0.69999 82.9 0.10001C94.5 0.50001 106 2.50001 117.6 3.20001C123.1 3.50001 128.6 3.60001 134.2 3.30001C137 3.20001 139.7 3.00001 142.4 2.70001C144 2.50001 145.5 2.40001 147.1 2.20001C148.2 2.00001 153.7 1.20001 148.3 2.10001C153.4 1.20001 157.6 1.20001 162.5 4.20001C167.5 7.50001 171.3 12.4 173.2 18C174.9 23.4 175.7 29.6 173.7 34.8C171.9 39.6 168.3 44.8 163.7 45.5C151.2 47.6 138.8 48.9 126.1 48.3C114.5 47.8 103 45.8 91.5 45.1C80 44.4 68.7 45.5 57.4 47.1H57L56.5 47.2L52.4 48C49.6 48.5 46.9 49.1 44.1 49.7C38.2 50.9 32.3 52.3 26.5 53.7C16.8 55.9 5.5 50 1.7 37.8C-3.57628e-07 32.5 -0.8 26.2 1.2 21Z" fill="#F3AF3D"/>
</svg>
